<svg width="28" height="28" viewBox="0 0 28 28" fill="none" xmlns="http://www.w3.org/2000/svg">
<rect width="28" height="28" rx="14" fill="#232930" fill-opacity="0.4"/>
<path d="M14 22.1667C13.7478 22.1664 13.5016 22.0956 13.2933 21.9636C10.2078 20.0186 8.87174 18.6849 8.13482 17.8511C6.56439 16.0738 5.81255 14.249 5.83375 12.273C5.85848 10.0086 7.81485 8.16669 10.1948 8.16669C11.9254 8.16669 13.1241 9.07195 13.8221 9.82591C13.8442 9.84955 13.8716 9.86851 13.9022 9.8815C13.9329 9.89449 13.9663 9.90122 14 9.90122C14.0337 9.90122 14.067 9.89449 14.0977 9.8815C14.1284 9.86851 14.1557 9.84955 14.1778 9.82591C14.8759 9.07122 16.0745 8.16669 17.8051 8.16669C20.1851 8.16669 22.1415 10.0086 22.1662 12.2734C22.1874 14.2498 21.4348 16.0745 19.8651 17.8515C19.1282 18.6853 17.7922 20.0189 14.7067 21.964C14.4983 22.0959 14.2521 22.1665 14 22.1667Z" fill="white"/>
</svg>
