<svg width="28" height="28" viewBox="0 0 28 28" fill="none" xmlns="http://www.w3.org/2000/svg">
<rect width="28" height="28" rx="14" fill="black" fill-opacity="0.4"/>
<path d="M18.4723 17.946C18.1319 17.9459 17.795 18.0193 17.4819 18.1618C17.1689 18.3043 16.8862 18.5129 16.6509 18.7751L10.8061 15.2704C10.9193 14.8173 10.9193 14.3405 10.8061 13.8874L16.6509 10.3827C17.0765 10.853 17.6484 11.1417 18.2595 11.1949C18.8705 11.248 19.4788 11.0619 19.9703 10.6714C20.4618 10.2809 20.8029 9.71281 20.9296 9.07355C21.0563 8.43428 20.96 7.7677 20.6586 7.1987C20.3573 6.62969 19.8716 6.1973 19.2926 5.98253C18.7136 5.76776 18.081 5.78534 17.5133 6.03198C16.9456 6.27862 16.4817 6.7374 16.2086 7.32237C15.9355 7.90734 15.8719 8.57835 16.0297 9.20972L10.1849 12.7144C9.83579 12.3265 9.38574 12.0587 8.89264 11.9456C8.39955 11.8325 7.88598 11.8792 7.418 12.0797C6.95002 12.2802 6.54904 12.6254 6.26663 13.0707C5.98422 13.5161 5.83331 14.0414 5.83331 14.5789C5.83331 15.1165 5.98422 15.6417 6.26663 16.0871C6.54904 16.5325 6.95002 16.8777 7.418 17.0782C7.88598 17.2787 8.39955 17.3254 8.89264 17.2123C9.38574 17.0992 9.83579 16.8314 10.1849 16.4434L16.0297 19.9481C15.8942 20.4919 15.9218 21.0672 16.1087 21.5933C16.2956 22.1195 16.6324 22.57 17.0718 22.8818C17.5112 23.1936 18.0311 23.3509 18.5587 23.3317C19.0863 23.3126 19.595 23.1178 20.0134 22.7748C20.4318 22.4318 20.739 21.9578 20.8918 21.4194C21.0446 20.8809 21.0353 20.3049 20.8654 19.7723C20.6954 19.2397 20.3732 18.7771 19.944 18.4496C19.5148 18.1221 19.0002 17.946 18.4723 17.946Z" fill="white"/>
</svg>
