<svg width="26" height="24" viewBox="0 0 26 24" fill="none" xmlns="http://www.w3.org/2000/svg">
<path d="M16.7341 14.6471C15.9351 14.2694 15.225 13.747 14.6236 13.0944C14.5484 13.0128 14.4754 12.9297 14.4046 12.8451L14.3599 12.8863L12.2786 13.4631C12.2741 12.0311 11.6133 10.6969 10.4996 9.8254C10.7347 9.272 10.8676 8.67604 10.8881 8.07165C10.9325 6.76217 10.4643 5.51377 9.56983 4.55641C8.67533 3.59905 7.46157 3.04739 6.15209 3.00295C3.45129 2.91028 1.17826 5.03542 1.08348 7.73809C1.02002 9.54706 1.84721 12.11 3.24218 14.4267C4.42655 16.3936 6.54602 19.0956 9.91754 20.7973L10.1458 20.9126L10.3948 20.8542C12.1688 20.4385 15.4732 18.5196 17.1942 16.9058C17.7673 16.3685 18.3098 15.8025 18.8069 15.2476C18.0874 15.1592 17.3923 14.9583 16.7341 14.6471Z" fill="#8A8A8A"/>
<path d="M23.6431 4.78311C22.6601 3.71639 21.3205 3.09639 19.8712 3.03723C19.795 3.03409 19.7188 3.03255 19.643 3.03255C18.277 3.03255 16.9802 3.53851 15.9697 4.4698C14.903 5.45276 14.283 6.79228 14.2238 8.24158C14.1017 11.2334 16.4363 13.7668 19.4282 13.889C19.5041 13.8921 19.5796 13.8937 19.6551 13.8937C21.0215 13.8936 22.319 13.388 23.3297 12.4565C24.3964 11.4735 25.0164 10.134 25.0756 8.68469C25.1348 7.23538 24.626 5.84973 23.6431 4.78311ZM22.2812 8.57055C22.2525 9.27347 21.9518 9.92306 21.4345 10.3998C20.9292 10.8655 20.289 11.0956 19.6507 11.0956C18.94 11.0956 18.2315 10.8105 17.713 10.2478C16.7289 9.17991 16.7971 7.51049 17.865 6.52636C18.9329 5.54224 20.6023 5.61049 21.5864 6.67833C22.0632 7.19563 22.3099 7.86762 22.2812 8.57055Z" fill="#8A8A8A"/>
<path d="M20.552 7.63125C20.3298 7.39017 20.0271 7.25002 19.6994 7.23661C19.3721 7.22368 19.0587 7.33824 18.8176 7.56042C18.5764 7.7826 18.4363 8.08536 18.4229 8.41297C18.4096 8.74057 18.5245 9.05374 18.7467 9.29486C19.2054 9.79257 19.9835 9.82435 20.4812 9.36569C20.7222 9.1435 20.8624 8.84074 20.8758 8.51314C20.8892 8.18554 20.7742 7.87232 20.552 7.63125Z" fill="#8A8A8A"/>
</svg>
