<svg width="40" height="40" viewBox="0 0 40 40" fill="none" xmlns="http://www.w3.org/2000/svg">
<circle cx="20" cy="20" r="20" fill="black" fill-opacity="0.5"/>
<path d="M15.5469 10.6985C15.2365 10.6991 14.9317 10.7805 14.6623 10.9346C14.0556 11.2784 13.6785 11.9456 13.6785 12.67V27.33C13.6785 28.0564 14.0556 28.7217 14.6623 29.0654C14.9381 29.2239 15.2514 29.3054 15.5695 29.3014C15.8876 29.2974 16.1988 29.2081 16.4705 29.0427L28.9997 21.5428C29.2608 21.3791 29.476 21.1517 29.6253 20.8821C29.7745 20.6124 29.8527 20.3092 29.8527 20.001C29.8527 19.6928 29.7745 19.3897 29.6253 19.12C29.476 18.8503 29.2608 18.6229 28.9997 18.4592L16.4685 10.9574C16.1904 10.7892 15.8719 10.6998 15.5469 10.6985Z" fill="white"/>
</svg>
