<svg width="24" height="24" viewBox="0 0 24 24" fill="none" xmlns="http://www.w3.org/2000/svg">
<path d="M12 2C10.0222 2 8.08879 2.58649 6.4443 3.6853C4.79981 4.78412 3.51809 6.3459 2.76121 8.17316C2.00433 10.0004 1.8063 12.0111 2.19215 13.9509C2.578 15.8907 3.53041 17.6725 4.92894 19.0711C6.32746 20.4696 8.10929 21.422 10.0491 21.8078C11.9889 22.1937 13.9996 21.9957 15.8268 21.2388C17.6541 20.4819 19.2159 19.2002 20.3147 17.5557C21.4135 15.9112 22 13.9778 22 12C22 9.34783 20.9464 6.80429 19.0711 4.92893C17.1957 3.05357 14.6522 2 12 2ZM16.2857 12.7143H12C11.8106 12.7143 11.6289 12.639 11.4949 12.5051C11.361 12.3711 11.2857 12.1894 11.2857 12V6.28571C11.2857 6.09627 11.361 5.91459 11.4949 5.78064C11.6289 5.64668 11.8106 5.57143 12 5.57143C12.1894 5.57143 12.3711 5.64668 12.5051 5.78064C12.639 5.91459 12.7143 6.09627 12.7143 6.28571V11.2857H16.2857C16.4752 11.2857 16.6568 11.361 16.7908 11.4949C16.9247 11.6289 17 11.8106 17 12C17 12.1894 16.9247 12.3711 16.7908 12.5051C16.6568 12.639 16.4752 12.7143 16.2857 12.7143Z" fill="#737678"/>
</svg>
