<svg width="18" height="18" viewBox="0 0 18 18" fill="none" xmlns="http://www.w3.org/2000/svg">
<path d="M13.5 6.42855C13.5 6.08755 13.3645 5.76053 13.1234 5.51941C12.8823 5.27829 12.5553 5.14283 12.2143 5.14283H11.8929V4.83044C11.8929 4.65747 11.7599 4.50901 11.5869 4.50037C11.5434 4.49828 11.5 4.50503 11.4592 4.52022C11.4185 4.53541 11.3812 4.55871 11.3497 4.58873C11.3182 4.61875 11.2931 4.65484 11.276 4.69484C11.2588 4.73483 11.25 4.77789 11.25 4.8214V5.14283H6.75V4.83044C6.75 4.65747 6.61701 4.50901 6.44404 4.50037C6.40058 4.49828 6.35715 4.50503 6.31637 4.52022C6.2756 4.53541 6.23833 4.55871 6.20683 4.58873C6.17533 4.61875 6.15026 4.65484 6.13312 4.69484C6.11598 4.73483 6.10715 4.77789 6.10714 4.8214V5.14283H5.78571C5.44472 5.14283 5.1177 5.27829 4.87658 5.51941C4.63546 5.76053 4.5 6.08755 4.5 6.42855V6.66962C4.5 6.69093 4.50847 6.71137 4.52354 6.72644C4.53861 6.74151 4.55905 6.74998 4.58036 6.74998H13.4196C13.441 6.74998 13.4614 6.74151 13.4765 6.72644C13.4915 6.71137 13.5 6.69093 13.5 6.66962V6.42855ZM4.5 12.2143C4.5 12.5553 4.63546 12.8823 4.87658 13.1234C5.1177 13.3645 5.44472 13.5 5.78571 13.5H12.2143C12.5553 13.5 12.8823 13.3645 13.1234 13.1234C13.3645 12.8823 13.5 12.5553 13.5 12.2143V7.47319C13.5 7.45188 13.4915 7.43144 13.4765 7.41637C13.4614 7.4013 13.441 7.39284 13.4196 7.39284H4.58036C4.55905 7.39284 4.53861 7.4013 4.52354 7.41637C4.50847 7.43144 4.5 7.45188 4.5 7.47319V12.2143Z" fill="#C4C4C4"/>
</svg>
