<svg width="24" height="24" viewBox="0 0 24 24" fill="none" xmlns="http://www.w3.org/2000/svg">
<rect width="24" height="24" rx="12" fill="#232930" fill-opacity="0.4"/>
<path d="M11.9999 17.0909C11.8203 17.0907 11.6449 17.0392 11.4965 16.9432C9.29827 15.5286 8.34643 14.5587 7.82143 13.9523C6.70261 12.6597 6.16697 11.3326 6.18207 9.89546C6.19969 8.2486 7.59347 6.90906 9.28904 6.90906C10.522 6.90906 11.3759 7.56743 11.8732 8.11576C11.889 8.13296 11.9085 8.14675 11.9303 8.15619C11.9522 8.16564 11.9759 8.17053 11.9999 8.17053C12.024 8.17053 12.0477 8.16564 12.0696 8.15619C12.0914 8.14675 12.1109 8.13296 12.1267 8.11576C12.624 7.5669 13.4779 6.90906 14.7108 6.90906C16.4064 6.90906 17.8002 8.2486 17.8178 9.89572C17.8329 11.3331 17.2967 12.6602 16.1785 13.9525C15.6535 14.5589 14.7016 15.5289 12.5034 16.9435C12.355 17.0394 12.1796 17.0907 11.9999 17.0909Z" fill="#27C9CC"/>
</svg>
