<svg width="24" height="24" viewBox="0 0 24 24" fill="none" xmlns="http://www.w3.org/2000/svg">
<path d="M12 20.5C11.7067 20.4996 11.4202 20.4137 11.1779 20.2534C7.58867 17.8916 6.0345 16.2721 5.17726 15.2597C3.35044 13.1015 2.47584 10.8857 2.50051 8.48622C2.52928 5.73656 4.80505 3.5 7.5736 3.5C9.58676 3.5 10.9811 4.59924 11.7931 5.51477C11.8188 5.54348 11.8506 5.5665 11.8863 5.58227C11.922 5.59805 11.9608 5.60621 12 5.60621C12.0392 5.60621 12.078 5.59805 12.1137 5.58227C12.1494 5.5665 12.1812 5.54348 12.2069 5.51477C13.0189 4.59836 14.4132 3.5 16.4264 3.5C19.195 3.5 21.4707 5.73656 21.4995 8.48667C21.5242 10.8866 20.6487 13.1023 18.8227 15.2601C17.9655 16.2726 16.4113 17.892 12.8221 20.2539C12.5797 20.414 12.2933 20.4998 12 20.5V20.5Z" fill="#737678"/>
</svg>
